<svg xmlns="http://www.w3.org/2000/svg" width="600" height="900" viewBox="0 0 600 900"><defs><linearGradient id="hide" x2="1" y2="1"><stop stop-color="#8b6042"/><stop offset=".45" stop-color="#62432f"/><stop offset="1" stop-color="#392b23"/></linearGradient><pattern id="grain" width="31" height="29" patternUnits="userSpaceOnUse"><path d="M3 7l4 1m13 10l3-2M9 25h3" stroke="#d0a171" stroke-opacity=".1" fill="none"/></pattern></defs><rect width="600" height="900" fill="url(#hide)"/><rect width="600" height="900" fill="url(#grain)"/><path d="M0 0h600v115q-300 53-600 0z" fill="#4c3227" stroke="#bb8b58" stroke-width="5"/><path d="M18 35h564v69q-282 48-564 0z" fill="none" stroke="#d4b18a" stroke-dasharray="7 6" opacity=".65"/><path d="M25 170q275-40 550 0v670q-275 32-550 0z" fill="none" stroke="#bc946c" stroke-width="2" stroke-dasharray="5 5"/><path d="M0 160q38 240 0 740M600 160q-38 240 0 740" fill="none" stroke="#241e18" stroke-width="15"/><path d="M55 0v104h64V0m362 0v104h64V0" fill="#b38b52" stroke="#382b20" stroke-width="6"/><path d="M67 15v65h40V15m386 0v65h40V15" fill="#61442c" stroke="#dfbc78" stroke-width="3"/><path d="M86 55v37m428-37v37" stroke="#e1ba72" stroke-width="5"/></svg>
